<svg xmlns="http://www.w3.org/2000/svg" xmlns:xlink="http://www.w3.org/1999/xlink" id="Layer_1" x="0" y="0" version="1.1" viewBox="0 0 100 100" xml:space="preserve" style="enable-background:new 0 0 100 100"><style type="text/css">.st0{fill:#ae96ff}</style><path d="M97.8,33.6c-1.4-1.4-3.3-2.2-5.3-2.2c-2,0-3.9,0.8-5.3,2.2L69.9,51L49.7,30.8l17.4-17.4	c1.4-1.4,2.2-3.3,2.2-5.3c0-2-0.8-3.9-2.2-5.3c-1.4-1.4-3.3-2.2-5.3-2.2c-2,0-3.9,0.8-5.3,2.2L39.1,20.3L28,9.2	c-0.5-0.5-1.2-0.8-1.9-0.8c-0.7,0-1.4,0.3-1.9,0.9c-16,17.6-7.3,55.7-6.4,59.4l-16,16C1.3,85.2,1,85.9,1,86.6c0,0.7,0.3,1.4,0.8,1.9	l9.7,9.7c0.5,0.5,1.2,0.8,1.9,0.8c0.7,0,1.4-0.3,1.9-0.8l16-16c7.8,2,17.6,3.2,26.2,3.2c10.3,0,24.5-1.7,33.2-9.6	c0.5-0.5,0.9-1.2,0.9-1.9c0-0.7-0.3-1.4-0.8-1.9L80.4,61.6l17.4-17.4C100.7,41.3,100.7,36.5,97.8,33.6z" class="st0"/></svg>