<svg xmlns="http://www.w3.org/2000/svg" xmlns:xlink="http://www.w3.org/1999/xlink" id="Layer_1" x="0" y="0" version="1.1" viewBox="0 0 500 500" xml:space="preserve" style="enable-background:new 0 0 500 500"><style type="text/css">.st0{fill:url(#SVGID_1_)}.st1{fill:url(#SVGID_2_)}.st2{fill:url(#SVGID_3_)}</style><g><linearGradient id="SVGID_1_" x1="-3.984" x2="508.034" y1="147.784" y2="147.784" gradientUnits="userSpaceOnUse"><stop offset="0" style="stop-color:#5725ff"/><stop offset="1" style="stop-color:#9271ff"/></linearGradient><path d="M359.88,206.46c1.77-2.9,2.53-6.31,2.53-9.71V97.9c-0.05,0.03-0.1,0.05-0.15,0.08 c-33.92-19.18-66.02-37.02-97.76-55.47c-8.86-5.15-16.21-4.99-25.01,0.11c-28.26,16.38-68.29,38.5-97.46,54.97 c7.63,4.2,15.47,8.53,23.41,12.9c-8.46-4.58-16.51-8.93-23.29-12.58v98.86c0,3.4,0.76,6.8,2.53,9.71c0.88,1.44,1.91,2.61,3.09,3.3 c29.63,17.34,85.01,47.1,85.01,47.1l0.97-108.9c4.33,2.36,8.59,4.67,12.75,6.93c2.7,1.46,7.31,2.07,9.81,0.73 c4.91-2.62,9.81-5.25,14.72-7.89l0.74,109.13c0,0,55.37-29.75,85.01-47.1C357.97,209.07,359,207.9,359.88,206.46z" class="st0"/><linearGradient id="SVGID_2_" x1="-3.984" x2="508.034" y1="352.079" y2="352.079" gradientUnits="userSpaceOnUse"><stop offset="0" style="stop-color:#5725ff"/><stop offset="1" style="stop-color:#9271ff"/></linearGradient><path d="M499.85,302.27c-33.92-19.18-66.02-37.02-97.76-55.47c-8.86-5.15-16.21-4.99-25.01,0.11 c-28.26,16.38-68.29,38.5-97.46,54.97c7.63,4.2,15.47,8.52,23.4,12.9c-8.46-4.58-16.51-8.93-23.28-12.58v98.86 c0,3.4,0.76,6.8,2.53,9.7c0.88,1.44,1.91,2.61,3.09,3.3c29.63,17.34,85.01,47.1,85.01,47.1l0.97-108.9 c4.33,2.36,8.59,4.67,12.75,6.93c2.7,1.46,7.31,2.07,9.81,0.73c4.91-2.62,9.81-5.25,14.72-7.89l0.74,109.13 c0,0,55.37-29.75,85.01-47.1c1.18-0.69,2.22-1.86,3.09-3.3c1.77-2.9,2.53-6.31,2.53-9.7v-98.86 C499.95,302.22,499.9,302.24,499.85,302.27z" class="st1"/><linearGradient id="SVGID_3_" x1="-3.984" x2="508.034" y1="352.079" y2="352.079" gradientUnits="userSpaceOnUse"><stop offset="0" style="stop-color:#5725ff"/><stop offset="1" style="stop-color:#9271ff"/></linearGradient><path d="M122.86,246.8c-8.86-5.15-16.21-4.99-25.01,0.11C69.6,263.28,29.57,285.4,0.4,301.87 c7.63,4.2,15.47,8.52,23.4,12.9c-8.46-4.58-16.51-8.93-23.28-12.58v98.86c0,3.4,0.76,6.8,2.53,9.7c0.88,1.44,1.91,2.61,3.09,3.3 c29.63,17.34,85.01,47.1,85.01,47.1l0.97-108.9c4.33,2.36,8.59,4.67,12.75,6.93c2.7,1.46,7.31,2.07,9.81,0.73 c4.91-2.62,9.81-5.25,14.72-7.89l0.74,109.13c0,0,55.37-29.75,85.01-47.1c1.18-0.69,2.22-1.86,3.09-3.3 c1.77-2.9,2.53-6.31,2.53-9.7v-98.86c-0.05,0.03-0.1,0.05-0.15,0.08C186.7,283.09,154.6,265.25,122.86,246.8z" class="st2"/></g></svg>