<svg xmlns="http://www.w3.org/2000/svg" xmlns:xlink="http://www.w3.org/1999/xlink" id="Layer_1" x="0" y="0" version="1.1" viewBox="0 0 500 500" xml:space="preserve" style="enable-background:new 0 0 500 500"><style type="text/css">.st0{fill:url(#SVGID_1_)}.st1{fill:url(#SVGID_2_)}</style><g><linearGradient id="SVGID_1_" x1="70.05" x2="431.547" y1="249.236" y2="249.236" gradientUnits="userSpaceOnUse"><stop offset="0" style="stop-color:#5725ff"/><stop offset="1" style="stop-color:#9271ff"/></linearGradient><path d="M393.79,192.71l-233.11,0.2c-0.02-0.95-0.04-1.9-0.07-2.87c-0.66-27.5-1.4-58.67,1.31-81.7 c3.57-30.27,23.57-52.89,56.32-63.69c9.21-3.04,18.32-4.58,27.09-4.58c19.69,0,38.36,7.73,55.5,22.98 c17.16,15.26,26.34,35.46,27.28,60.03c0.5,13.23,7.54,20.93,19.82,21.69c0.39,0.03,0.78,0.04,1.17,0.04 c4.81,0,9.16-1.81,12.58-5.24c4.27-4.27,6.61-10.59,6.61-17.8c0-4.96-0.4-9.92-1.18-14.76C357.08,45,305.28,0,243.96,0 c-3.33,0-6.71,0.14-10.05,0.4c-65.25,5.18-114.56,59.47-114.69,126.3c-0.04,18.46-0.03,44.52-0.02,66.25l-9.92,0.01 c-23.22,0-42.04,18.82-42.04,42.04V480.9c0,9.7,7.87,17.57,17.57,17.57l327.81-0.25c12.82,0,23.21-10.39,23.21-23.21V234.74 C435.83,211.53,417.01,192.71,393.79,192.71z M269.79,373.7v38.87c0,9.88-8.01,17.88-17.88,17.88c-9.88,0-17.88-8.01-17.88-17.88 V373.7c-18.17-7.15-31.06-24.81-31.06-45.52c0-27.03,21.91-48.94,48.94-48.94c27.03,0,48.94,21.91,48.94,48.94 C300.85,348.89,287.96,366.56,269.79,373.7z" class="st0"/><linearGradient id="SVGID_2_" x1="87.252" x2="448.749" y1="328.182" y2="328.182" gradientUnits="userSpaceOnUse"><stop offset="0" style="stop-color:#5725ff"/><stop offset="1" style="stop-color:#9271ff"/></linearGradient><circle cx="252.16" cy="328.18" r="17.88" class="st1"/></g></svg>